<mxfile host="app.diagrams.net" modified="2023-09-15T06:48:29.503Z" agent="Mozilla/5.0 (Macintosh; Intel Mac OS X 10_15_7) AppleWebKit/605.1.15 (KHTML, like Gecko) Version/16.3 Safari/605.1.15" version="21.7.5" etag="uJHnwwn3Ckoh5z6DLCYu" type="github">
  <diagram name="Сторінка-1" id="gfqYNwLdSD_sLag9S6XC">
    <mxGraphModel>
      <root>
        <mxCell id="0" />
        <mxCell id="1" parent="0" />
      </root>
    </mxGraphModel>
  </diagram>
</mxfile>
